HIERARCHY
ROOT pelvis
{
  OFFSET 0 100 0
  CHANNELS 6 Xposition Yposition Zposition Zrotation Xrotation Yrotation
  JOINT pelvis_right_femur
  {
    OFFSET -10.78128 -3.44521 -0.5502486
    CHANNELS 3 Zrotation Xrotation Yrotation
    JOINT right_femur_tibia
    {
      OFFSET -0.8047443 -44.0398 -0.1307829
      CHANNELS 3 Zrotation Xrotation Yrotation
      JOINT right_tibia_foot
      {
        OFFSET 3.006224 -47.83518 -5
        CHANNELS 3 Zrotation Xrotation Yrotation
        End Site
        {
          OFFSET 0 -5 15
        }
      }
    }
  }
  JOINT pelvis_left_femur
  {
    OFFSET 10.78128 -3.44521 -0.5502486
    CHANNELS 3 Zrotation Xrotation Yrotation
    JOINT left_femur_tibia
    {
      OFFSET 0.8047443 -44.0398 -0.1307829
      CHANNELS 3 Zrotation Xrotation Yrotation
      JOINT left_tibia_foot
      {
        OFFSET -4.370144 -48.10324 -4.275266
        CHANNELS 3 Zrotation Xrotation Yrotation
        End Site
        {
          OFFSET 0 -5 15
        }
      }
    }
  }
  JOINT pelvis_spine1
  {
    OFFSET 0 6.468898 -3.129235
    CHANNELS 3 Zrotation Xrotation Yrotation
    JOINT spine1
    {
      OFFSET 0 23.15396 4.99043
      CHANNELS 3 Zrotation Xrotation Yrotation
      JOINT spine2
      {
        OFFSET 0 20.79997 -5.064912
        CHANNELS 3 Zrotation Xrotation Yrotation
        JOINT neck
        {
          OFFSET 0 14.38658 9.616178
          CHANNELS 3 Zrotation Xrotation Yrotation
          End Site
          {
            OFFSET 0 20 0
          }
        }
      }
      JOINT right_manubrium
      {
        OFFSET -5.722621 16.35077 3.967754
        CHANNELS 3 Zrotation Xrotation Yrotation
        JOINT right_clavicle
        {
          OFFSET -13.16364 1.694482 -4.693211
          CHANNELS 3 Zrotation Xrotation Yrotation
          JOINT right_humerus
          {
            OFFSET -28.5034 -0.3100689 -2.792744
            CHANNELS 3 Zrotation Xrotation Yrotation
            JOINT right_radius
            {
              OFFSET -25.15693 0.02248979 -1.271978
              CHANNELS 3 Zrotation Xrotation Yrotation
              End Site
              {
                OFFSET -15 0 0
              }
            }
          }
        }
      }
      JOINT left_manubrium
      {
        OFFSET 5.722621 16.35077 3.967754
        CHANNELS 3 Zrotation Xrotation Yrotation
        JOINT left_clavicle
        {
          OFFSET 13.16364 1.694482 -4.693211
          CHANNELS 3 Zrotation Xrotation Yrotation
          JOINT left_humerus
          {
            OFFSET 29.39168 -1.063119 -2.237045
            CHANNELS 3 Zrotation Xrotation Yrotation
            JOINT left_radius
            {
              OFFSET 24.59957 -0.9528479 0.9047498
              CHANNELS 3 Zrotation Xrotation Yrotation
              End Site
              {
                OFFSET 15 -0 -0
              }
            }
          }
        }
      }
    }
  }
}
MOTION
Frames: 20
Frame Time: 0.0416666666667
0 103.5113 0 -0.1349922 2.339554 0.4358568 3.835054 -15.84674 7.059968 -1.808425e-09 35.96005 2.079731e-09 -7.192796 -12.27053 -0.8431012 -6.548665 4.181814 -21.22128 -1.818957e-09 3.675985 -8.486203e-10 5.718829 -17.42222 22.67482 -3.249418 -3.025477 4.429613 2.727044 8.659416 -7.605766 0.5337448 21.50765 7.743662 3.687052 -26.15694 9.126584 7.000676 -20.18725 11.96698 83.07563 38.5391 -16.49652 -1.105996e-10 1.2949e-10 17.33821 -8.221568 8.612779 6.613169 5.348653 -19.18038 -0.4592521 -96.39323 28.66891 27.25091 3.905121e-10 -2.501742e-10 -13.91305 3.582967 16.79059 10.26688
0.56198 103.8273 2.151266 -0.09415509 2.231647 0.9516268 3.698569 -17.2958 7.120933 -1.803546e-09 38.19965 2.130152e-09 -7.061433 -11.35985 -1.121273 -6.752867 6.015333 -21.60497 -1.972862e-09 3.652101 -9.101594e-10 5.725175 -17.99404 22.72575 -3.392937 -2.978986 4.165652 2.72944 8.593261 -7.714647 0.5764484 21.68248 7.854885 3.724618 -26.15627 9.309483 7.141695 -19.76813 11.90004 83.87163 38.66684 -17.24537 -9.199202e-11 1.438635e-10 16.72287 -8.131108 8.528986 6.445347 5.394029 -19.21336 -0.4979547 -96.23247 29.022 26.49094 3.395964e-10 -2.725287e-10 -14.1614 3.585862 16.82469 10.29815
1.104369 104.1618 4.340872 -0.09868438 2.180903 1.517655 3.698257 -18.98634 7.037713 -1.712967e-09 38.70625 2.053274e-09 -6.997498 -10.70119 -1.385774 -6.796111 7.778218 -21.72019 -2.030522e-09 3.683658 -1.049797e-09 5.680952 -18.56472 22.58885 -3.451469 -2.944491 3.918683 2.772695 8.558314 -7.881377 0.6052715 21.7806 7.922242 3.740595 -26.11919 9.415363 7.151229 -19.39984 11.83823 84.69761 38.59928 -18.12085 -8.179536e-11 1.420024e-10 16.08412 -8.118337 8.53935 6.280018 5.526269 -19.43901 -0.5831777 -95.81196 29.169 25.50065 3.088717e-10 -2.708384e-10 -14.81214 3.741269 16.8481 10.11371
1.604606 104.4254 6.602061 -0.1492469 2.193072 2.093498 3.842455 -20.94317 6.843748 -1.53834e-09 37.46504 1.854592e-09 -6.970155 -10.33434 -1.653614 -6.690107 9.478743 -21.57298 -1.980648e-09 3.884551 -1.244258e-09 5.545317 -19.14369 22.25994 -3.425153 -2.916848 3.694669 2.86259 8.548784 -8.114422 0.6219473 21.81644 7.952199 3.736094 -26.05527 9.455431 7.048659 -19.07008 11.78985 85.61437 38.37217 -19.16486 -8.015694e-11 1.262899e-10 15.42355 -8.182481 8.664395 6.109202 5.747854 -19.86053 -0.7002685 -95.19941 29.12833 24.28455 2.966049e-10 -2.460454e-10 -15.89721 4.016983 16.8449 9.757488
2.043244 104.5344 8.952311 -0.2480393 2.285171 2.6375 4.120053 -23.02705 6.555936 -1.316035e-09 34.49642 1.570141e-09 -6.99692 -10.29678 -1.890118 -6.447932 10.99007 -21.17831 -1.823005e-09 4.188482 -1.483726e-09 5.342408 -19.67316 21.74597 -3.312935 -2.903034 3.50623 2.99574 8.556568 -8.393316 0.6221172 21.75944 7.935722 3.708229 -25.96269 9.41482 6.838251 -18.79499 11.74809 86.42617 38.00704 -20.24324 -8.767661e-11 9.729861e-11 14.77788 -8.276877 8.875033 5.929488 6.035977 -20.43204 -0.8366317 -94.35173 28.90004 22.91967 3.06887e-10 -1.999921e-10 -17.32466 4.400071 16.81198 9.238754
2.408146 104.4411 11.40734 -0.3757024 2.411565 3.120474 4.476347 -25.08466 6.229363 -1.092771e-09 30.48469 1.261946e-09 -7.044288 -10.47396 -2.10748 -6.128533 12.3002 -20.61157 -1.582323e-09 4.684537 -1.721878e-09 5.062416 -20.12262 21.10466 -3.142188 -2.892103 3.351797 3.149455 8.574097 -8.687398 0.6143879 21.64239 7.884986 3.662652 -25.83735 9.318886 6.563223 -18.54954 11.71057 87.11687 37.55296 -21.29014 -1.001176e-10 6.165536e-11 14.15408 -8.399571 9.14422 5.748616 6.352033 -21.07337 -0.9771857 -93.36648 28.54137 21.48953 3.308124e-10 -1.426517e-10 -18.92012 4.82494 16.73912 8.644223
2.693608 104.1186 14.00554 -0.5078191 2.495583 3.521377 4.861563 -26.95583 5.892182 -8.832751e-10 25.93243 9.540763e-10 -7.038269 -10.77067 -2.343719 -5.767376 13.36573 -19.87347 -1.278752e-09 5.530035 -1.922777e-09 4.637446 -20.47395 20.36838 -2.931072 -2.860335 3.237904 3.29564 8.601986 -8.969992 0.6134328 21.5153 7.809395 3.59901 -25.64704 9.19285 6.241317 -18.31222 11.68048 87.77904 36.99665 -22.28209 -1.146513e-10 2.51108e-11 13.5732 -8.642649 9.495645 5.605274 6.678304 -21.73572 -1.116493 -92.36874 28.07089 20.02126 3.568282e-10 -8.0336e-11 -20.5774 5.220299 16.59087 8.061198
2.908674 103.6225 16.7798 -0.6082462 2.45053 3.841971 5.194003 -28.37408 5.627857 -7.047177e-10 22.16576 7.043633e-10 -6.951718 -10.93296 -2.616065 -5.46273 14.19479 -19.11193 -9.416004e-10 6.994112 -1.988429e-09 4.070803 -20.65196 19.64572 -2.726309 -2.791331 3.155854 3.394177 8.638721 -9.187232 0.6342663 21.4434 7.731494 3.532519 -25.39709 9.081938 5.954448 -18.0344 11.65674 88.4192 36.42375 -23.13308 -1.205737e-10 -1.232525e-12 13.0179 -8.984007 9.865115 5.503131 6.937484 -22.28149 -1.240535 -91.52369 27.61503 18.66314 3.665118e-10 -2.965517e-11 -21.96449 5.490643 16.37596 7.624819
3.070047 103.0665 19.74909 -0.6665808 2.23919 4.091816 5.453081 -29.10019 5.472105 -5.500942e-10 19.8205 5.356913e-10 -6.826902 -10.82814 -2.901959 -5.253397 14.70017 -18.3936 -5.559773e-10 9.350581 -1.842357e-09 3.389954 -20.53082 18.97802 -2.537099 -2.685058 3.108564 3.424864 8.692187 -9.298025 0.6799855 21.43148 7.649002 3.470682 -25.09117 8.98608 5.739549 -17.69768 11.6353 88.90298 35.8823 -23.73115 -1.098596e-10 -1.319213e-11 12.46783 -9.360185 10.18795 5.42577 7.065905 -22.62131 -1.348924 -90.83139 27.23034 17.53002 3.534384e-10 1.2223e-12 -22.84365 5.611178 16.1131 7.371323
3.201406 102.631 22.92696 -0.6720856 1.805672 4.285428 5.628963 -28.85827 5.479076 -4.078798e-10 19.60338 4.730676e-10 -6.697751 -10.31456 -3.193474 -5.17808 14.77333 -17.77865 -1.012801e-10 13.08348 -1.379694e-09 2.590492 -19.95864 18.40951 -2.368572 -2.535486 3.10635 3.365765 8.777963 -9.260817 0.7570074 21.5048 7.562042 3.423388 -24.73698 8.911105 5.643988 -17.27702 11.62132 89.17527 35.4264 -24.00424 -7.226554e-11 -5.173157e-12 11.89648 -9.723979 10.41387 5.355928 6.994073 -22.66841 -1.439267 -90.35444 26.98374 16.75263 3.08362e-10 2.415954e-12 -22.96921 5.542446 15.81519 7.361151
3.317099 102.4593 26.34548 -0.6586242 1.193391 4.40622 5.833117 -27.53952 5.632668 -2.683733e-10 20.46924 4.838227e-10 -6.603046 -9.695889 -3.46417 -5.136338 14.09297 -17.11358 4.760504e-10 18.51176 -6.01088e-10 1.616575 -18.83715 17.8887 -2.1601 -2.351276 3.2144 3.244937 8.929474 -9.100661 0.8539671 21.64988 7.449613 3.386586 -24.36474 8.819287 5.625976 -16.86604 11.65556 89.33954 35.02484 -24.0151 -1.239328e-11 1.682231e-11 11.4022 -10.12641 10.62931 5.315685 6.754263 -22.52597 -1.506957 -90.22691 26.78405 16.43619 2.465326e-10 -1.641504e-11 -22.51259 5.315621 15.47597 7.562034
3.407385 102.6726 29.99182 -0.6882689 0.5447909 4.408695 6.197374 -25.35165 5.895261 -1.349963e-10 21.28475 5.532601e-10 -6.719655 -9.185639 -3.632409 -5.031151 12.64183 -16.34922 1.228128e-09 25.74821 4.513725e-10 0.5632739 -17.08233 17.32351 -1.849479 -2.175227 3.437809 3.120412 9.155578 -8.862515 0.9411379 21.75535 7.279186 3.360288 -24.02995 8.641126 5.651109 -16.49334 11.73668 89.15763 34.71234 -23.80207 6.768547e-11 4.184234e-11 10.9184 -10.3603 10.79305 5.204138 6.360293 -22.28435 -1.556763 -90.18602 26.56262 16.56103 1.938686e-10 -4.556193e-11 -21.65882 5.064199 15.14652 7.805651
3.472325 103.2969 33.88804 -0.7497911 -0.1399237 4.233931 6.667175 -22.04169 6.212947 -2.122011e-11 21.44227 6.537833e-10 -6.884562 -9.121641 -3.703249 -4.775474 10.00523 -15.3528 2.014383e-09 34.20582 1.671315e-09 -0.6257784 -14.78895 16.80402 -1.443043 -1.988927 3.851024 2.978486 9.449512 -8.540058 1.021934 21.85669 7.056223 3.328879 -23.7119 8.39062 5.673229 -16.30293 11.8953 88.80534 34.43067 -23.29568 1.514415e-10 7.048359e-11 10.74465 -10.68012 11.04818 5.175328 5.879079 -21.97852 -1.558798 -90.54565 26.25494 17.2624 1.544317e-10 -7.666084e-11 -20.5158 4.697371 14.76031 8.198305
3.520236 104.2696 38.01029 -0.8332912 -0.7544079 3.849191 7.115091 -17.86921 6.468845 4.388985e-11 20.69896 7.655539e-10 -7.04914 -9.600922 -3.621952 -4.338838 6.325308 -14.20266 2.655313e-09 42.1655 2.853828e-09 -1.736148 -12.27843 16.43329 -1.002822 -1.819472 4.4149 2.820227 9.753601 -8.144179 1.081272 21.88702 6.793711 3.281462 -23.40568 8.075929 5.642246 -16.38022 12.08864 88.07191 34.15926 -22.34919 2.19117e-10 9.703343e-11 11.02562 -11.09286 11.35256 5.291064 5.382615 -21.60597 -1.510734 -91.1256 25.8345 18.47223 1.3966e-10 -1.01431e-10 -19.173 4.262409 14.34409 8.663075
3.56146 105.4311 42.30652 -0.9118025 -1.216248 3.266306 7.411436 -13.5584 6.556467 5.411604e-11 19.05703 8.463443e-10 -7.110319 -10.50654 -3.409882 -3.755038 2.253 -13.00929 3.045929e-09 47.75848 3.752435e-09 -2.590943 -10.05875 16.23131 -0.6165277 -1.683183 5.014018 2.651129 9.988718 -7.72316 1.11454 21.80003 6.523298 3.206455 -23.07217 7.736774 5.506737 -16.69691 12.24515 86.90679 33.82234 -20.99745 2.5258e-10 1.151797e-10 11.73272 -11.61765 11.66059 5.577105 4.978703 -21.20259 -1.434471 -91.58537 25.30483 19.81712 1.498761e-10 -1.104599e-10 -17.87564 3.834676 13.91761 9.07957
3.622191 106.6062 46.75403 -0.9414814 -1.594081 2.52289 7.464862 -9.098024 6.520942 4.015428e-12 17.25082 8.951991e-10 -6.926284 -11.73087 -3.116153 -3.083724 -2.120065 -11.83897 3.150081e-09 50.51483 4.348112e-09 -3.225824 -8.310311 16.28589 -0.3461491 -1.560193 5.637011 2.439009 10.14044 -7.264733 1.138798 21.685 6.281898 3.107665 -22.70149 7.439495 5.291182 -17.26556 12.36852 85.58859 33.39822 -19.27225 2.4822e-10 1.310568e-10 12.95393 -12.41394 12.00255 6.124934 4.687566 -20.73604 -1.323025 -92.17874 24.72292 21.31349 1.695729e-10 -1.091154e-10 -16.56627 3.335797 13.46395 9.558775
3.723014 107.5912 51.35367 -0.9111993 -1.907524 1.669079 7.274439 -4.912603 6.329626 -8.861635e-11 15.14655 8.741894e-10 -6.44725 -13.14242 -2.788333 -2.337959 -6.392811 -10.6589 3.040183e-09 50.06988 4.495752e-09 -3.656237 -7.229471 16.51696 -0.2067543 -1.444699 6.222232 2.188681 10.19463 -6.807687 1.161606 21.5468 6.078126 2.978681 -22.24718 7.199437 4.950684 -18.02421 12.43141 84.28136 32.77423 -17.33086 2.026101e-10 1.389061e-10 14.5794 -13.55763 12.39286 6.942687 4.568529 -20.27855 -1.212294 -92.73831 24.04853 22.66351 1.938014e-10 -9.094951e-11 -15.45648 2.823733 12.97292 10.01347
3.90089 108.1517 56.05863 -0.7972213 -2.074578 0.7837328 6.764219 -1.211996 5.996732 -2.551297e-10 13.01468 7.865916e-10 -5.654286 -14.72231 -2.365019 -1.60868 -10.37131 -9.638374 2.65867e-09 45.24464 4.039521e-09 -3.701419 -7.044559 16.98181 -0.2591585 -1.368428 6.726187 1.905048 10.10153 -6.357027 1.170523 21.34378 5.93274 2.82018 -21.73706 7.037974 4.492337 -19.00286 12.39334 82.81839 31.99926 -15.08421 1.067311e-10 1.345781e-10 16.66776 -14.95961 12.73578 8.032923 4.643161 -19.78361 -1.093272 -93.14574 23.35474 23.87053 2.268936e-10 -5.646738e-11 -14.51695 2.316464 12.49223 10.41912
4.179979 108.1714 60.83338 -0.6217552 -2.162328 -0.07166568 6.049516 1.920967 5.637504 -4.623082e-10 11.40177 6.669692e-10 -4.681363 -16.20584 -1.903835 -0.9878949 -13.81333 -8.845962 2.022724e-09 37.81362 3.228068e-09 -3.477609 -7.486794 17.59677 -0.4545294 -1.320797 7.128087 1.608836 9.91113 -5.932892 1.175194 21.1315 5.845435 2.655999 -21.22164 6.957733 4.002355 -20.03731 12.28031 81.4074 31.16863 -12.80349 -1.318049e-11 1.219606e-10 18.90182 -16.44073 12.98938 9.232328 4.828245 -19.26624 -0.9780708 -93.44564 22.73234 24.89758 2.574689e-10 -1.792006e-11 -13.68832 1.829726 12.05261 10.78982
4.57218 107.6315 65.65041 -0.408609 -2.216628 -0.8500771 5.224293 4.399747 5.316904 -6.774647e-10 10.55323 5.403602e-10 -3.634432 -17.41609 -1.46599 -0.5400834 -16.53589 -8.311264 1.169496e-09 29.23213 2.223597e-09 -3.094303 -8.331144 18.27559 -0.7443763 -1.289355 7.412772 1.319703 9.660177 -5.5545 1.183062 20.9397 5.809396 2.500094 -20.72607 6.950977 3.539294 -20.98732 12.1124 80.15821 30.35951 -10.69058 -1.372807e-10 1.051631e-10 21.01909 -17.85811 13.14179 10.4021 5.063775 -18.74656 -0.8754876 -93.61667 22.23975 25.67477 2.777978e-10 1.680041e-11 -12.96298 1.377066 11.66279 11.12681
